<svg xmlns="http://www.w3.org/2000/svg" xmlns:xlink="http://www.w3.org/1999/xlink" width="500" zoomAndPan="magnify" viewBox="0 0 375 374.999991" height="500" preserveAspectRatio="xMidYMid meet" version="1.0"><defs><clipPath id="6875ccfaff"><path d="M 8.578125 8.578125 L 367.828125 8.578125 L 367.828125 367.828125 L 8.578125 367.828125 Z M 8.578125 8.578125 " clip-rule="nonzero"/></clipPath></defs><g clip-path="url(#6875ccfaff)"><path fill="#ffffff" d="M 357.109375 137.648438 L 321.097656 133.835938 C 320.9375 133.449219 320.777344 133.0625 320.617188 132.679688 L 343.390625 104.519531 C 347.238281 99.757812 346.878906 92.847656 342.542969 88.519531 L 287.886719 33.859375 C 283.539062 29.511719 276.648438 29.160156 271.886719 33.019531 L 243.726562 55.789062 C 243.339844 55.625 242.960938 55.472656 242.574219 55.308594 L 238.761719 19.289062 C 238.113281 13.195312 232.980469 8.578125 226.851562 8.578125 L 149.554688 8.578125 C 143.425781 8.578125 138.292969 13.195312 137.640625 19.289062 L 133.828125 55.308594 C 133.445312 55.460938 133.0625 55.625 132.679688 55.789062 L 104.519531 33.019531 C 99.753906 29.160156 92.859375 29.511719 88.519531 33.859375 L 33.859375 88.519531 C 29.527344 92.847656 29.164062 99.757812 33.011719 104.519531 L 55.789062 132.679688 C 55.628906 133.0625 55.464844 133.449219 55.308594 133.835938 L 19.296875 137.648438 C 13.203125 138.292969 8.578125 143.425781 8.578125 149.554688 L 8.578125 226.851562 C 8.578125 232.980469 13.203125 238.113281 19.296875 238.757812 L 55.308594 242.570312 C 55.464844 242.957031 55.628906 243.339844 55.789062 243.726562 L 33.011719 271.886719 C 29.164062 276.648438 29.527344 283.558594 33.859375 287.886719 L 88.519531 342.542969 C 92.859375 346.882812 99.753906 347.234375 104.519531 343.386719 L 132.679688 320.617188 C 133.0625 320.78125 133.445312 320.945312 133.828125 321.097656 L 137.640625 357.117188 C 138.292969 363.207031 143.425781 367.828125 149.554688 367.828125 L 226.851562 367.828125 C 232.980469 367.828125 238.113281 363.207031 238.761719 357.117188 L 242.574219 321.097656 C 242.960938 320.933594 243.339844 320.78125 243.726562 320.617188 L 271.886719 343.386719 C 276.648438 347.234375 283.539062 346.882812 287.886719 342.542969 L 342.542969 287.886719 C 346.878906 283.558594 347.238281 276.648438 343.390625 271.886719 L 320.617188 243.726562 C 320.777344 243.339844 320.9375 242.957031 321.097656 242.570312 L 357.109375 238.757812 C 363.203125 238.113281 367.828125 232.980469 367.828125 226.851562 L 367.828125 149.554688 C 367.828125 143.425781 363.203125 138.292969 357.109375 137.648438 Z M 343.878906 216.082031 L 311.261719 219.53125 C 306.648438 220.011719 302.738281 223.121094 301.210938 227.496094 C 299.714844 231.800781 297.917969 236.101562 295.890625 240.289062 C 293.867188 244.464844 294.441406 249.433594 297.351562 253.046875 L 317.992188 278.566406 L 278.570312 317.988281 L 253.046875 297.359375 C 249.433594 294.421875 244.464844 293.871094 240.296875 295.894531 C 236.042969 297.953125 231.746094 299.730469 227.523438 301.195312 C 223.140625 302.714844 220.023438 306.632812 219.53125 311.25 L 216.078125 343.878906 L 160.328125 343.878906 L 156.875 311.25 C 156.382812 306.632812 153.265625 302.714844 148.878906 301.195312 C 144.636719 299.730469 140.34375 297.941406 136.117188 295.894531 C 131.949219 293.871094 126.976562 294.421875 123.359375 297.359375 L 97.835938 317.988281 L 58.414062 278.566406 L 79.054688 253.046875 C 81.964844 249.433594 82.539062 244.464844 80.515625 240.289062 C 78.488281 236.101562 76.691406 231.800781 75.195312 227.496094 C 73.667969 223.121094 69.757812 220.011719 65.144531 219.53125 L 32.527344 216.082031 L 32.527344 160.324219 L 65.144531 156.875 C 69.757812 156.394531 73.667969 153.285156 75.195312 148.910156 C 76.691406 144.605469 78.488281 140.300781 80.515625 136.117188 C 82.539062 131.941406 81.964844 126.972656 79.054688 123.359375 L 58.414062 97.839844 L 97.835938 58.417969 L 123.359375 79.046875 C 126.976562 81.984375 131.945312 82.542969 136.117188 80.507812 C 140.34375 78.464844 144.636719 76.675781 148.878906 75.210938 C 153.265625 73.691406 156.382812 69.773438 156.875 65.15625 L 160.328125 32.527344 L 216.074219 32.527344 L 219.53125 65.15625 C 220.023438 69.773438 223.140625 73.691406 227.523438 75.210938 C 231.746094 76.671875 236.042969 78.453125 240.296875 80.507812 C 244.464844 82.542969 249.433594 81.984375 253.046875 79.046875 L 278.570312 58.417969 L 317.992188 97.839844 L 297.351562 123.359375 C 294.441406 126.972656 293.867188 131.941406 295.890625 136.117188 C 297.917969 140.300781 299.714844 144.605469 301.210938 148.910156 C 302.738281 153.285156 306.648438 156.394531 311.261719 156.875 L 343.878906 160.324219 Z M 343.878906 216.082031 " fill-opacity="1" fill-rule="nonzero"/></g><path fill="#ffffff" d="M 188.203125 90.367188 C 134.257812 90.367188 90.375 134.257812 90.375 188.203125 C 90.375 242.148438 134.257812 286.039062 188.203125 286.039062 C 242.148438 286.039062 286.03125 242.148438 286.03125 188.203125 C 286.03125 134.257812 242.148438 90.367188 188.203125 90.367188 Z M 188.203125 262.085938 C 147.464844 262.085938 114.324219 228.945312 114.324219 188.203125 C 114.324219 147.460938 147.464844 114.316406 188.203125 114.316406 C 228.941406 114.316406 262.082031 147.460938 262.082031 188.203125 C 262.082031 228.945312 228.941406 262.085938 188.203125 262.085938 Z M 188.203125 262.085938 " fill-opacity="1" fill-rule="nonzero"/></svg>