<svg xmlns="http://www.w3.org/2000/svg" xmlns:xlink="http://www.w3.org/1999/xlink" width="500" zoomAndPan="magnify" viewBox="0 0 375 374.999991" height="500" preserveAspectRatio="xMidYMid meet" version="1.0"><defs><clipPath id="387232f640"><path d="M 6.664062 55.886719 L 368.914062 55.886719 L 368.914062 319.886719 L 6.664062 319.886719 Z M 6.664062 55.886719 " clip-rule="nonzero"/></clipPath></defs><g clip-path="url(#387232f640)"><path fill="#000000" d="M 357.203125 292.15625 C 357.203125 297.328125 352.933594 301.539062 347.453125 301.542969 L 187.773438 308.160156 L 27.851562 301.539062 C 22.613281 301.539062 18.347656 297.328125 18.347656 292.15625 L 18.347656 95.605469 C 18.347656 90.414062 22.613281 86.195312 27.851562 86.195312 L 34.832031 86.195312 L 34.832031 285.300781 C 35.242188 289.417969 38.488281 290.894531 40.976562 291.144531 C 41.496094 291.195312 94.414062 288.441406 135.503906 288.28125 C 169.0625 288.28125 187.007812 295.324219 187.761719 295.324219 C 188.539062 295.324219 206.476562 288.28125 241.105469 288.28125 C 281.125 288.441406 334.039062 291.152344 334.558594 291.144531 C 338.445312 291.09375 340.582031 288.226562 340.703125 285.300781 L 340.703125 86.191406 L 347.699219 86.191406 C 352.9375 86.191406 357.203125 90.414062 357.203125 95.605469 Z M 172.253906 279.550781 C 163.242188 277.972656 150.746094 276.582031 134.382812 276.582031 C 112.019531 276.667969 85.867188 277.539062 66.773438 278.296875 C 85.566406 272.5625 112.203125 265.886719 134.679688 265.785156 C 152.058594 265.785156 164.371094 272.863281 172.253906 279.550781 Z M 46.523438 89.847656 C 59.335938 84.691406 104.019531 67.613281 134.324219 67.613281 C 163.859375 67.9375 178.066406 80.894531 181.929688 85.140625 L 181.929688 272.421875 C 172.527344 263.859375 156.863281 254.085938 134.371094 254.085938 C 102.148438 254.226562 63.089844 266.726562 46.523438 272.589844 Z M 308.816406 278.300781 C 289.582031 277.539062 263.078125 276.667969 240.046875 276.582031 C 224.328125 276.582031 212.210938 277.941406 203.375 279.5 C 211.292969 272.828125 223.648438 265.785156 241.128906 265.785156 C 263.472656 265.882812 290.050781 272.566406 308.816406 278.300781 Z M 193.617188 85.148438 C 197.53125 80.867188 211.839844 67.9375 242.011719 67.605469 C 271.628906 67.605469 316.214844 84.683594 329.015625 89.847656 L 329.015625 272.589844 C 312.445312 266.726562 273.34375 254.226562 240.863281 254.085938 C 218.574219 254.085938 203 263.84375 193.617188 272.394531 Z M 347.699219 74.492188 L 321.769531 74.492188 C 302.054688 67.1875 267.386719 55.914062 241.097656 55.914062 C 211.917969 56.234375 195.324219 67.621094 187.878906 74.492188 L 187.648438 74.492188 C 180.144531 67.621094 163.367188 56.234375 133.539062 55.910156 C 107.890625 55.910156 73.394531 67.1875 53.746094 74.492188 L 27.851562 74.492188 C 16.171875 74.492188 6.664062 83.964844 6.664062 95.605469 L 6.664062 292.15625 C 6.664062 303.773438 16.171875 313.230469 27.601562 313.230469 C 27.613281 313.230469 187.535156 319.859375 187.535156 319.859375 C 187.613281 319.867188 187.695312 319.867188 187.773438 319.867188 C 187.851562 319.867188 187.929688 319.867188 188.015625 319.859375 L 347.699219 313.234375 C 359.378906 313.234375 368.886719 303.777344 368.886719 292.15625 L 368.886719 95.605469 C 368.886719 83.964844 359.378906 74.492188 347.699219 74.492188 " fill-opacity="1" fill-rule="nonzero"/></g></svg>