<svg xmlns="http://www.w3.org/2000/svg" xmlns:xlink="http://www.w3.org/1999/xlink" width="500" zoomAndPan="magnify" viewBox="0 0 375 374.999991" height="500" preserveAspectRatio="xMidYMid meet" version="1.0"><defs><clipPath id="ffdf5073b3"><path d="M 8.578125 8.578125 L 367.828125 8.578125 L 367.828125 367.828125 L 8.578125 367.828125 Z M 8.578125 8.578125 " clip-rule="nonzero"/></clipPath></defs><g clip-path="url(#ffdf5073b3)"><path fill="#ffffff" d="M 72.34375 289.242188 C 91.207031 276.070312 109.917969 265.964844 128.476562 258.929688 C 147.039062 251.894531 166.945312 248.378906 188.203125 248.378906 C 209.457031 248.378906 229.441406 251.894531 248.152344 258.929688 C 266.863281 265.964844 285.648438 276.070312 304.511719 289.242188 C 317.683594 273.074219 327.039062 256.757812 332.578125 240.292969 C 338.113281 223.828125 340.882812 206.464844 340.882812 188.203125 C 340.882812 144.792969 326.289062 108.492188 297.101562 79.304688 C 267.910156 50.117188 231.613281 35.519531 188.203125 35.519531 C 144.792969 35.519531 108.492188 50.117188 79.304688 79.304688 C 50.117188 108.492188 35.519531 144.792969 35.519531 188.203125 C 35.519531 206.464844 38.367188 223.828125 44.054688 240.292969 C 49.742188 256.757812 59.171875 273.074219 72.34375 289.242188 Z M 188.203125 201.675781 C 170.839844 201.675781 156.246094 195.761719 144.417969 183.9375 C 132.59375 172.109375 126.679688 157.515625 126.679688 140.152344 C 126.679688 122.789062 132.59375 108.195312 144.417969 96.371094 C 156.246094 84.542969 170.839844 78.632812 188.203125 78.632812 C 205.566406 78.632812 220.160156 84.542969 231.984375 96.371094 C 243.8125 108.195312 249.722656 122.789062 249.722656 140.152344 C 249.722656 157.515625 243.8125 172.109375 231.984375 183.9375 C 220.160156 195.761719 205.566406 201.675781 188.203125 201.675781 Z M 188.203125 367.828125 C 163.652344 367.828125 140.453125 363.113281 118.597656 353.683594 C 96.742188 344.25 77.660156 331.378906 61.34375 315.0625 C 45.027344 298.746094 32.152344 279.660156 22.722656 257.808594 C 13.292969 235.953125 8.578125 212.75 8.578125 188.203125 C 8.578125 163.355469 13.292969 140.078125 22.722656 118.375 C 32.152344 96.667969 45.027344 77.660156 61.34375 61.34375 C 77.660156 45.027344 96.742188 32.152344 118.597656 22.722656 C 140.453125 13.292969 163.652344 8.578125 188.203125 8.578125 C 213.050781 8.578125 236.328125 13.292969 258.03125 22.722656 C 279.738281 32.152344 298.746094 45.027344 315.0625 61.34375 C 331.378906 77.660156 344.25 96.667969 353.683594 118.375 C 363.113281 140.078125 367.828125 163.355469 367.828125 188.203125 C 367.828125 212.75 363.113281 235.953125 353.683594 257.808594 C 344.25 279.660156 331.378906 298.746094 315.0625 315.0625 C 298.746094 331.378906 279.738281 344.25 258.03125 353.683594 C 236.328125 363.113281 213.050781 367.828125 188.203125 367.828125 Z M 188.203125 340.882812 C 204.667969 340.882812 220.757812 338.488281 236.476562 333.699219 C 252.195312 328.910156 267.6875 320.527344 282.953125 308.550781 C 267.6875 297.773438 252.121094 289.542969 236.253906 283.851562 C 220.386719 278.164062 204.367188 275.320312 188.203125 275.320312 C 172.035156 275.320312 156.019531 278.164062 140.152344 283.851562 C 124.285156 289.542969 108.71875 297.773438 93.449219 308.550781 C 108.71875 320.527344 124.210938 328.910156 139.929688 333.699219 C 155.644531 338.488281 171.738281 340.882812 188.203125 340.882812 Z M 188.203125 174.730469 C 198.382812 174.730469 206.6875 171.511719 213.125 165.074219 C 219.5625 158.640625 222.78125 150.332031 222.78125 140.152344 C 222.78125 129.972656 219.5625 121.667969 213.125 115.230469 C 206.6875 108.792969 198.382812 105.574219 188.203125 105.574219 C 178.023438 105.574219 169.714844 108.792969 163.28125 115.230469 C 156.84375 121.667969 153.625 129.972656 153.625 140.152344 C 153.625 150.332031 156.84375 158.640625 163.28125 165.074219 C 169.714844 171.511719 178.023438 174.730469 188.203125 174.730469 Z M 188.203125 140.152344 Z M 188.203125 308.101562 Z M 188.203125 308.101562 " fill-opacity="1" fill-rule="nonzero"/></g></svg>