<svg xmlns="http://www.w3.org/2000/svg" xmlns:xlink="http://www.w3.org/1999/xlink" width="500" zoomAndPan="magnify" viewBox="0 0 375 374.999991" height="500" preserveAspectRatio="xMidYMid meet" version="1.0"><defs><clipPath id="5ef25b0b34"><path d="M 50.574219 13.347656 L 324.324219 13.347656 L 324.324219 361.347656 L 50.574219 361.347656 Z M 50.574219 13.347656 " clip-rule="nonzero"/></clipPath></defs><g clip-path="url(#5ef25b0b34)"><path fill="#000000" d="M 63.101562 348.917969 L 63.101562 25.777344 L 249.621094 25.777344 L 249.621094 81.703125 C 249.621094 85.140625 252.402344 87.917969 255.839844 87.917969 L 311.796875 87.917969 L 311.796875 348.917969 Z M 262.054688 34.5625 L 303.003906 75.492188 L 262.054688 75.492188 Z M 324.109375 80.480469 C 324.054688 80.207031 323.957031 79.957031 323.871094 79.703125 C 323.828125 79.574219 323.804688 79.441406 323.75 79.3125 C 323.636719 79.035156 323.484375 78.78125 323.324219 78.519531 C 323.269531 78.433594 323.234375 78.335938 323.179688 78.246094 C 322.957031 77.910156 322.695312 77.597656 322.410156 77.3125 L 260.234375 15.167969 C 260.230469 15.164062 260.222656 15.164062 260.222656 15.15625 C 259.9375 14.878906 259.628906 14.621094 259.300781 14.398438 C 259.195312 14.332031 259.085938 14.289062 258.984375 14.226562 C 258.734375 14.082031 258.492188 13.9375 258.230469 13.828125 C 258.097656 13.773438 257.953125 13.742188 257.8125 13.699219 C 257.570312 13.613281 257.328125 13.523438 257.066406 13.46875 C 256.664062 13.390625 256.257812 13.347656 255.839844 13.347656 L 56.882812 13.347656 C 53.453125 13.347656 50.664062 16.128906 50.664062 19.5625 L 50.664062 355.132812 C 50.664062 358.5625 53.453125 361.347656 56.882812 361.347656 L 318.011719 361.347656 C 321.449219 361.347656 324.230469 358.5625 324.230469 355.132812 L 324.230469 81.703125 C 324.230469 81.285156 324.1875 80.878906 324.109375 80.480469 " fill-opacity="1" fill-rule="nonzero"/></g><path fill="#000000" d="M 137.707031 148.285156 C 137.707031 134.683594 144.261719 125.203125 150.144531 125.203125 L 156.359375 125.203125 C 159.796875 125.203125 162.578125 122.425781 162.578125 118.992188 C 162.578125 115.554688 159.796875 112.777344 156.359375 112.777344 L 150.144531 112.777344 C 136.195312 112.777344 125.273438 128.371094 125.273438 148.285156 L 125.273438 158.054688 C 125.273438 171.652344 118.722656 181.132812 112.839844 181.132812 C 109.402344 181.132812 106.621094 183.914062 106.621094 187.347656 C 106.621094 190.78125 109.402344 193.5625 112.839844 193.5625 C 118.722656 193.5625 125.273438 203.042969 125.273438 216.640625 L 125.273438 226.410156 C 125.273438 246.324219 136.195312 261.917969 150.144531 261.917969 L 156.359375 261.917969 C 159.796875 261.917969 162.578125 259.140625 162.578125 255.703125 C 162.578125 252.269531 159.796875 249.492188 156.359375 249.492188 L 150.144531 249.492188 C 144.261719 249.492188 137.707031 240.011719 137.707031 226.410156 L 137.707031 216.640625 C 137.707031 204.347656 133.542969 193.695312 127.070312 187.347656 C 133.542969 181 137.707031 170.347656 137.707031 158.054688 L 137.707031 148.285156 " fill-opacity="1" fill-rule="nonzero"/><path fill="#000000" d="M 262.054688 181.132812 C 256.171875 181.132812 249.621094 171.652344 249.621094 158.054688 L 249.621094 148.285156 C 249.621094 128.371094 238.699219 112.777344 224.753906 112.777344 L 218.535156 112.777344 C 215.097656 112.777344 212.316406 115.554688 212.316406 118.992188 C 212.316406 122.417969 215.097656 125.203125 218.535156 125.203125 L 224.753906 125.203125 C 230.628906 125.203125 237.1875 134.683594 237.1875 148.285156 L 237.1875 158.054688 C 237.1875 170.347656 241.351562 181 247.824219 187.347656 C 241.351562 193.695312 237.1875 204.347656 237.1875 216.640625 L 237.1875 226.410156 C 237.1875 240.011719 230.628906 249.492188 224.753906 249.492188 L 218.535156 249.492188 C 215.097656 249.492188 212.316406 252.269531 212.316406 255.703125 C 212.316406 259.132812 215.097656 261.917969 218.535156 261.917969 L 224.753906 261.917969 C 238.699219 261.917969 249.621094 246.324219 249.621094 226.410156 L 249.621094 216.640625 C 249.621094 203.042969 256.171875 193.5625 262.054688 193.5625 C 265.488281 193.5625 268.273438 190.777344 268.273438 187.347656 C 268.273438 183.914062 265.488281 181.132812 262.054688 181.132812 " fill-opacity="1" fill-rule="nonzero"/><path fill="#000000" d="M 187.449219 162.492188 C 184.015625 162.492188 181.230469 159.699219 181.230469 156.277344 C 181.230469 152.855469 184.015625 150.0625 187.449219 150.0625 C 190.878906 150.0625 193.664062 152.855469 193.664062 156.277344 C 193.664062 159.699219 190.878906 162.492188 187.449219 162.492188 Z M 187.449219 137.632812 C 177.164062 137.632812 168.796875 145.996094 168.796875 156.277344 C 168.796875 166.554688 177.164062 174.917969 187.449219 174.917969 C 197.734375 174.917969 206.101562 166.554688 206.101562 156.277344 C 206.101562 145.996094 197.734375 137.632812 187.449219 137.632812 " fill-opacity="1" fill-rule="nonzero"/><path fill="#000000" d="M 193.34375 191.59375 C 192.257812 188.34375 188.734375 186.582031 185.480469 187.667969 C 182.226562 188.75 180.464844 192.273438 181.550781 195.527344 L 183.835938 202.378906 C 185.949219 208.714844 185.949219 215.695312 183.835938 222.03125 L 181.550781 228.882812 C 180.464844 232.140625 182.226562 235.660156 185.480469 236.742188 C 186.136719 236.957031 186.796875 237.0625 187.449219 237.0625 C 190.050781 237.0625 192.476562 235.417969 193.34375 232.8125 L 195.632812 225.960938 C 198.589844 217.089844 198.589844 207.320312 195.632812 198.445312 L 193.34375 191.59375 " fill-opacity="1" fill-rule="nonzero"/></svg>