<svg xmlns="http://www.w3.org/2000/svg" xmlns:xlink="http://www.w3.org/1999/xlink" width="500" zoomAndPan="magnify" viewBox="0 0 375 374.999991" height="500" preserveAspectRatio="xMidYMid meet" version="1.0"><defs><clipPath id="cbf3d72a7d"><path d="M 14.628906 23.113281 L 360.378906 23.113281 L 360.378906 351.613281 L 14.628906 351.613281 Z M 14.628906 23.113281 " clip-rule="nonzero"/></clipPath></defs><g clip-path="url(#cbf3d72a7d)"><path fill="#f4c01e" d="M 187.503906 23.113281 L 232.023438 123.121094 C 233.734375 126.960938 236.425781 130.285156 239.828125 132.757812 C 243.234375 135.226562 247.230469 136.757812 251.414062 137.195312 L 360.363281 148.597656 L 278.929688 221.804688 C 275.800781 224.617188 273.46875 228.203125 272.167969 232.203125 C 270.867188 236.199219 270.644531 240.46875 271.519531 244.582031 L 294.335938 351.636719 L 199.488281 296.875 C 195.84375 294.769531 191.710938 293.664062 187.503906 293.664062 C 183.292969 293.664062 179.160156 294.769531 175.519531 296.875 L 80.667969 351.636719 L 103.484375 244.582031 C 104.359375 240.46875 104.136719 236.199219 102.835938 232.203125 C 101.535156 228.203125 99.203125 224.617188 96.078125 221.804688 L 14.640625 148.597656 L 123.59375 137.195312 C 127.777344 136.757812 131.773438 135.226562 135.175781 132.757812 C 138.578125 130.285156 141.273438 126.960938 142.984375 123.121094 Z M 187.503906 23.113281 " fill-opacity="1" fill-rule="evenodd"/></g></svg>